<?xml version="1.0" encoding="utf-8"?>
<!-- Generator: Adobe Illustrator 25.0.0, SVG Export Plug-In . SVG Version: 6.00 Build 0)  -->
<svg version="1.1" id="Layer_1" xmlns="http://www.w3.org/2000/svg" xmlns:xlink="http://www.w3.org/1999/xlink" x="0px" y="0px"
	 viewBox="0 0 150 58" style="enable-background:new 0 0 150 58;" xml:space="preserve">
<style type="text/css">
	.st0{fill:#3AAC59;}
	.st1{display:none;fill:#FFFFFF;}
	.st2{fill:#3DAB5A;}
	.st3{fill:#3FAB5B;}
	.st4{display:none;fill:#3AAC59;}
	.st5{display:none;fill:#FDFDFD;}
	.st6{fill:#45A960;}
	.st7{fill:#669573;}
	.st8{display:none;fill:#59986A;}
	.st9{display:none;fill:#679A75;}
	.st10{display:none;fill:#FCFDFC;}
	.st11{fill:#40AC5E;}
</style>
<g id="chia-logo-_x28_1_x29_">
	<polygon id="Rectangle-path" class="st0" points="80.3,24.2 90,24.2 90,52.6 80.3,52.6 	"/>
	<g>
		<path class="st1" d="M13.9,28c-0.8,0-1.6,0-2.4,0c-0.2,0-0.3,0-0.3-0.3c0-3.2,0-6.4,0-9.6c0-5,0-9.9,0-14.9c0-0.3,0.1-0.4,0.4-0.4
			c8.1,0,16.3,0,24.4,0c0.3,0,0.4,0.1,0.4,0.4c0,4.6,0,9.3,0,13.9c-0.1-0.1-0.1-0.3-0.2-0.4c-0.2-0.4,0-0.9-0.2-1.3
			c-0.3-0.6-0.3-1.3-0.7-1.8c0,0,0,0,0,0c-0.1-0.6-0.5-1-0.8-1.5c-0.3-0.5-0.5-1-1-1.3c-0.2-0.1-0.1-0.5-0.4-0.6
			c-0.2,0-0.2-0.2-0.4-0.3c-0.2-0.2-0.2-0.5-0.4-0.6c-0.5-0.2-0.6-0.8-1.1-1c-0.4-0.2-0.5-0.7-0.9-0.9C30,7.3,29.9,7,29.7,6.9
			c-0.6-0.3-0.9-0.9-1.5-1.1c-0.2-0.1-0.2-0.4-0.4-0.4c-0.3,0-0.4-0.1-0.5-0.3c-0.2-0.3-0.6-0.4-0.9-0.5c-0.3-0.1-0.3-0.4-0.6-0.4
			c-0.7-0.1-1.2-0.5-1.9-0.7C23.1,3.2,22.3,3,21.5,3c-0.3,0-0.5,0-0.8,0c-0.3-0.1-0.5,0-0.8,0c-0.4,0.1-0.8,0.2-1.2,0.2
			c-0.2,0-0.4,0.1-0.6,0.1c-0.1,0-0.1,0.1-0.1,0.2c0,0.1,0,0.1,0.1,0.1c0.6,0.1,1,0.6,1.5,0.8C20,4.5,20,4.8,20.2,4.9
			c0.4,0.1,0.7,0.3,1,0.6c0.3,0.3,0.7,0.6,1.1,0.7c0.5,0.2,0.8,0.7,1.3,0.9c0.4,0.2,0.6,0.7,1.1,0.8c0.1,0,0.1,0.1,0.2,0.2
			c0.3,0.5,0.8,0.7,1.2,1c0.4,0.4,0.8,0.8,1.3,1.2c0.3,0.2,0.5,0.5,0.8,0.8c0.3,0.3,0.6,0.6,0.9,0.9c0.2,0.1,0.2,0.4,0.4,0.5
			c0.5,0.3,0.7,0.9,1.1,1.2c0.2,0.1,0.2,0.5,0.4,0.6c0.5,0.3,0.6,0.9,1,1.2c0.2,0.1,0.2,0.5,0.3,0.6c0.5,0.4,0.6,1,1.1,1.4
			c0.3,0.3,0.4,0.7,0.7,1c0.2,0.3,0.4,0.6,0.5,0.9c0.3,0.6,0.8,1.1,0.9,1.7c0,0.1,0.2,0.2,0.2,0.1c0.1-0.2,0.2-0.4,0.2-0.6
			c0-0.5,0.1-1,0.3-1.4c0,2.8,0,5.7,0,8.5c0,0.3-0.1,0.4-0.4,0.4c-7.2,0-14.4,0-21.6,0c0.1-0.1,0.2-0.2,0.3-0.3
			c4.5-4.5,9.1-9.1,13.6-13.6c0.1-0.1,0.2-0.2,0.2-0.2c0.1-0.1,0.1-0.3,0-0.4c-0.4-0.3-0.6-0.7-1-0.9c-0.5-0.4-0.8-0.9-1.3-1.2
			c-0.1,0-0.1-0.1-0.1-0.1c-0.3-0.5-0.3-0.5-0.7-0.1c-4.6,4.6-9.2,9.2-13.8,13.8c-0.1,0.1-0.1,0.1-0.2,0.2c-0.1,0.1-0.1,0.3,0,0.4
			c0.6,0.2,0.7,0.8,1.2,1.1c0.3,0.1,0.3,0.5,0.5,0.6C13.4,27.3,13.7,27.6,13.9,28z M35,6.6c0-0.1,0-0.1-0.1-0.2
			c-0.7-0.7-1.3-1.3-2-2c-0.2-0.2-0.4-0.2-0.6,0c-0.6,0.4-1.1,0.8-1.6,1.2c-0.2,0.2-0.2,0.4,0.1,0.5c0.3,0.1,0.5,0.3,0.5,0.5
			C31.4,6.8,31.5,7,31.6,7c0.3,0,0.4,0.3,0.6,0.4c0.1,0.1,0,0.2,0.1,0.3c0.4,0.2,0.7,0.5,0.9,0.9c0.1,0.2,0.3,0.2,0.4,0
			C34,8,34.4,7.4,34.9,6.9C34.9,6.8,34.9,6.7,35,6.6z"/>
		<path class="st2" d="M13.9,28c-0.2-0.4-0.4-0.7-0.9-0.9c-0.2-0.1-0.2-0.5-0.5-0.6c-0.5-0.2-0.6-0.9-1.2-1.1c-0.2,0-0.2-0.2,0-0.4
			c0.1-0.1,0.1-0.1,0.2-0.2c4.6-4.6,9.2-9.2,13.8-13.8c0.4-0.4,0.4-0.4,0.7,0.1c0,0.1,0.1,0.1,0.1,0.1c0.5,0.3,0.8,0.9,1.3,1.2
			c0.3,0.2,0.6,0.7,1,0.9c0.1,0.1,0.1,0.3,0,0.4c-0.1,0.1-0.2,0.2-0.2,0.2c-4.5,4.5-9.1,9.1-13.6,13.6c-0.1,0.1-0.2,0.2-0.3,0.3
			C14.1,28,14,28,13.9,28z"/>
		<path class="st2" d="M36.2,19.1C36.1,19.5,36,20,36,20.5c0,0.2-0.1,0.4-0.2,0.6c-0.1,0.2-0.2,0.1-0.2-0.1
			c-0.2-0.6-0.6-1.1-0.9-1.7c-0.1-0.3-0.3-0.6-0.5-0.9c-0.3-0.3-0.4-0.8-0.7-1c-0.4-0.4-0.6-1-1.1-1.4c-0.2-0.1-0.1-0.4-0.3-0.6
			c-0.5-0.3-0.5-0.9-1-1.2c-0.2-0.1-0.2-0.4-0.4-0.6c-0.5-0.3-0.6-0.9-1.1-1.2c-0.2-0.1-0.2-0.4-0.4-0.5c-0.3-0.3-0.6-0.6-0.9-0.9
			c-0.3-0.3-0.5-0.6-0.8-0.8c-0.5-0.4-0.9-0.8-1.3-1.2c-0.4-0.3-0.9-0.6-1.2-1c0-0.1-0.1-0.1-0.2-0.2c-0.5-0.2-0.7-0.7-1.1-0.8
			c-0.5-0.2-0.8-0.7-1.3-0.9c-0.4-0.2-0.7-0.5-1.1-0.7c-0.3-0.2-0.6-0.4-1-0.6C20,4.8,20,4.5,19.8,4.5c-0.6-0.1-0.9-0.7-1.5-0.8
			c-0.1,0-0.1-0.1-0.1-0.1c0-0.1,0-0.2,0.1-0.2c0.2,0,0.4-0.1,0.6-0.1c0.4,0,0.8-0.1,1.2-0.2C20.2,3,20.4,3,20.7,3
			c0.3,0.1,0.5,0,0.8,0c0.8,0,1.6,0.2,2.4,0.4c0.7,0.2,1.2,0.6,1.9,0.7c0.3,0,0.3,0.3,0.6,0.4c0.3,0.1,0.7,0.2,0.9,0.5
			c0.1,0.2,0.3,0.3,0.5,0.3c0.2,0,0.2,0.3,0.4,0.4c0.6,0.2,0.9,0.8,1.5,1.1C29.9,7,30,7.3,30.2,7.4c0.4,0.2,0.6,0.7,0.9,0.9
			c0.5,0.2,0.6,0.8,1.1,1c0.2,0.1,0.2,0.4,0.4,0.6c0.1,0.1,0.2,0.2,0.4,0.3c0.3,0.1,0.1,0.5,0.4,0.6c0.5,0.3,0.7,0.9,1,1.3
			c0.3,0.5,0.7,0.9,0.8,1.5c0,0,0,0,0,0c0.4,0.6,0.4,1.2,0.7,1.8c0.2,0.4,0.1,0.9,0.2,1.3c0,0.1,0,0.3,0.2,0.4
			C36.2,17.8,36.2,18.4,36.2,19.1z"/>
		<path class="st3" d="M35,6.6c0,0.1-0.1,0.2-0.1,0.2C34.4,7.4,34,8,33.6,8.6c-0.1,0.2-0.3,0.1-0.4,0c-0.2-0.4-0.5-0.7-0.9-0.9
			c-0.1-0.1,0-0.2-0.1-0.3C32,7.3,31.9,7,31.6,7c-0.1,0-0.2-0.1-0.2-0.3c-0.1-0.2-0.3-0.4-0.5-0.5c-0.3-0.1-0.4-0.3-0.1-0.5
			c0.5-0.4,1-0.8,1.6-1.2c0.2-0.2,0.4-0.2,0.6,0c0.7,0.7,1.3,1.3,2,2C34.9,6.5,35,6.5,35,6.6z"/>
	</g>
	<path id="Shape" class="st0" d="M66.9,22.1c-3.7,0-7.6,0.9-8.5,2.6c0,0,0,0,0,0.1V12.8h-10v18.9v0c1,0.5,2,1,3,1.6
		c0.3,0.2,0.6,0.4,0.9,0.5c0.1,0.1,0.3,0.2,0.4,0.2c0,0-5.7,8.9-13.5,10.8c-4.6,1.1-10-0.2-11.1-4.8c0-0.2-0.1-0.4-0.1-0.6
		c0.7-0.4,1.5-0.8,2.2-1.2c1.9-0.8,3.4-1.5,3.9-1.7c0,0,0.1,0,0.1-0.1c0,0,0,0,0,0c0,0,0,0,0,0c4.5-1.6,8.4-2.2,8.4-2.2
		c-3.5-0.3-6.4-0.1-8.9,0.4c0,0,0,0,0,0s0,0-0.1,0c-2.3,0.5-4.1,1.1-5.5,1.8c0.8-3.3,3.7-6.2,7.1-7c0.3-0.1,0.6-0.1,0.9-0.2
		c0.1,0,0.2,0,0.3,0c0.2,0,0.5-0.1,0.7-0.1c0.1,0,0.2,0,0.2,0c0.3,0,0.6,0,0.9,0c0.1,0,0.1,0,0.2,0c0.3,0,0.5,0,0.8,0
		c0.1,0,0.2,0,0.3,0c0.1,0,0.2,0,0.3,0c1.5,0.2,3.3,0.5,5.3,1.2v-6.5c-1-0.3-2-0.6-3.1-0.9c-2.8-0.7-7.6-1.5-12.9-0.3
		c-8.5,2.1-10.9,8.4-10.9,16c0,1,0.1,1.9,0.2,2.8c-1.8,1.2-3.7,2.6-5.3,4.2c0,0,2.5-1.1,5.7-2.5c2.2,7.4,9.7,9.9,15.4,9.9
		c5.9,0,9.7-1.7,14.3-4.5v3.6h10V34.4c0,0,0,0,0-0.1V34c0.9-2.5,2.6-3.2,4.4-3.2c2.4,0,3.9,1.7,3.9,4.4v17h10V32.3
		C76.6,26.1,72.7,22.1,66.9,22.1"/>
	<path id="Shape_1_" class="st0" d="M85,10.3c-3,0-5.1,2.1-5.1,5.2s2.1,5.2,5.1,5.2s5.1-2.1,5.1-5.2S88,10.3,85,10.3"/>
	<path id="Shape_2_" class="st4" d="M136.7,36.1L136.7,36.1l0-12.7h-10l-0.1,1.8c-9.6-6.2-15.8,0.2-15.8,0.2
		c-2.9,2.7-4.7,6.9-4.7,12.3c0,9.5,5.7,15.1,13.1,15.1c2.8,0,5.3-0.6,7.5-3.7c0.3,0.7,0.8,2.5,1.2,3.1h10.4
		C136.6,49.2,136.6,39,136.7,36.1 M121.6,44.6c-3.2,0-5.5-2.8-5.5-6.8s2.3-6.8,5.5-6.8c2.3,0,4.1,1.4,4.9,3.6V41
		C125.6,43.2,123.8,44.6,121.6,44.6"/>
</g>
<g>
	<path class="st5" d="M120.9,60.8c-8.4,0-16.8,0-25.2,0c-0.7,0-1,0-1-0.9c0-16.9,0-33.7,0-50.6c0-0.8,0.2-0.8,0.9-0.8
		c16.9,0,33.7,0,50.6,0c0.8,0,0.8,0.2,0.8,0.9c0,16.9,0,33.7,0,50.6c0,0.8-0.2,0.8-0.9,0.8C137.7,60.8,129.3,60.8,120.9,60.8z
		 M141.7,29L141.7,29c0.3,0.6,0.6,1.2,1.2,1.6c0-0.8-0.4-1.5-0.9-2.2c-0.3-1-0.9-1.9-1.5-2.6c-1.5-1.9-2.4-4.1-4.1-5.8
		c-0.8-0.9-2.2-1-3-1.9c-0.6-0.7-1.4-1.2-2.2-1.6c-0.6-0.3-1.2-1-2.1-0.7c1.1,1,2.1,1.9,3.1,2.9c0.5,0.5,1.2,1.1,1.5,1.7
		c0.2,0.5-0.7,0.9-0.9,1.4c-0.4,1.2-1.5,1.7-2.2,2.6c-0.3,0.4-0.6,0.2-0.9,0c-0.8-0.5-1.5-1.1-2.4-1.5c-5.1-2.3-10-1.9-14.6,1.3
		c-0.7,0.5-1.1,0.5-1.7-0.2c-0.8-0.9-1.6-1.9-2.3-2.8c-0.5-0.6-0.4-1,0.1-1.5c1.5-1.7,3.3-3.1,5.1-4.6c-0.9-0.3-1.3,0.4-1.9,0.7
		c-2.3,0.9-3.8,3-6.1,3.9c-1.4,0.6-1.6,2.3-2.5,3.3c-1.4,1.8-2.7,3.7-3.7,5.7c-0.1,0.2-0.2,0.3-0.3,0.5c-0.1,0.6-0.9,0.9-0.5,1.6
		c0.6-0.3,0.8-0.9,1.1-1.5c1.4-1.9,2.8-3.8,4.5-5.4c0.3-0.3,0.6-0.8,1.1-0.3c1.1,0.9,2.4,1.6,3.4,2.7c0.5,0.5,0.5,0.8,0.1,1.4
		c-3.6,5.4-3.5,11.8,0.5,17c0.5,0.6,0.3,0.9-0.1,1.4c-1.6,1.6-3.2,3.3-4.9,5c-0.5,0.5-0.6,0.8,0,1.3c0.5,0.4,0.8,0.9,1.5,0.2
		c1.5-1.6,3.2-3,4.7-4.6c0.7-0.7,1.1-0.9,1.9-0.2c1.4,1.1,3,1.9,4.9,2.2c2.3,0.7,4.5,0.7,6.8,0l0,0c0.4,0,0.7,0,1-0.3
		c1.5-0.4,2.9-1,4.1-2c0.7-0.6,1.1-0.4,1.7,0.2c1.6,1.6,3.2,3.1,4.8,4.7c0.6,0.6,1,0.5,1.5-0.1c0.6-0.6,0.6-0.8,0-1.4
		c-1.6-1.6-3.2-3.3-4.8-4.9c-0.5-0.5-0.7-0.9-0.1-1.5c2.3-2.6,2.9-5.9,2.9-9.2c0.1-2.8-0.8-5.4-2.5-7.7c-0.5-0.6-0.3-1,0.2-1.5
		c1-0.9,1.8-1.8,3-2.5c0.6-0.3,0.9-0.4,1.4,0.1c1.5,1.4,2.8,3.1,4.1,4.7C141.6,28.8,141.7,28.9,141.7,29z"/>
	<path class="st6" d="M117.5,50c-1.8-0.3-3.4-1.1-4.9-2.2c-0.9-0.7-1.3-0.5-1.9,0.2c-1.5,1.6-3.2,3-4.7,4.6c-0.7,0.7-1,0.3-1.5-0.2
		c-0.6-0.5-0.5-0.8,0-1.3c1.6-1.6,3.2-3.3,4.9-5c0.5-0.5,0.6-0.7,0.1-1.4c-3.9-5.2-4.1-11.6-0.5-17c0.4-0.6,0.4-0.9-0.1-1.4
		c-1-1.1-2.3-1.8-3.4-2.7c-0.5-0.5-0.8,0-1.1,0.3c-1.8,1.6-3.2,3.5-4.5,5.4c-0.3-0.1-0.3-0.4-0.3-0.7c1-2.1,2.3-3.9,3.7-5.7
		c0.9-1.1,1.1-2.8,2.5-3.3c2.3-0.9,3.9-3,6.1-3.9c0.6-0.2,1-1,1.9-0.7c-1.8,1.5-3.5,2.9-5.1,4.6c-0.5,0.5-0.5,0.9-0.1,1.5
		c0.7,1,1.5,1.9,2.3,2.8c0.6,0.6,0.9,0.7,1.7,0.2c4.6-3.1,9.5-3.6,14.6-1.3c0.8,0.4,1.6,0.9,2.4,1.5c0.3,0.2,0.6,0.4,0.9,0
		c0.7-0.9,1.8-1.5,2.2-2.6c0.2-0.6,1.1-0.9,0.9-1.4c-0.3-0.7-0.9-1.2-1.5-1.7c-1-1-2-1.9-3.1-2.9c0.9-0.3,1.5,0.3,2.1,0.7
		c0.8,0.4,1.6,0.9,2.2,1.6c0.9,0.9,2.2,1,3,1.9c1.7,1.7,2.6,4,4.1,5.8c0.6,0.8,1.2,1.6,1.5,2.6c0,0.2-0.1,0.5-0.3,0.6c0,0,0,0,0,0
		c-0.1-0.1-0.1-0.2-0.2-0.3c-1.3-1.6-2.5-3.3-4.1-4.7c-0.5-0.5-0.8-0.4-1.4-0.1c-1.2,0.7-2,1.6-3,2.5c-0.5,0.5-0.7,0.9-0.2,1.5
		c1.7,2.3,2.6,5,2.5,7.7c-0.1,3.3-0.7,6.5-2.9,9.2c-0.6,0.7-0.4,1,0.1,1.5c1.6,1.6,3.2,3.3,4.8,4.9c0.6,0.6,0.6,0.8,0,1.4
		c-0.6,0.5-0.9,0.7-1.5,0.1c-1.6-1.6-3.2-3.1-4.8-4.7c-0.6-0.6-1-0.7-1.7-0.2c-1.2,1-2.6,1.6-4.1,2c-0.3,0-0.7-0.1-1,0.3
		c0,0,0,0,0,0C122,50.3,119.7,50.3,117.5,50z M120.9,48.4c7,0,12.5-5.5,12.5-12.4c0-6.9-5.5-12.5-12.4-12.5c-7,0-12.5,5.6-12.5,12.7
		C108.4,42.9,114,48.4,120.9,48.4z"/>
	<path class="st7" d="M117.5,50c2.3,0.3,4.5,0.3,6.8,0C122,50.8,119.7,50.7,117.5,50z"/>
	<path class="st8" d="M141.7,29c0.2-0.1,0.3-0.4,0.3-0.6c0.5,0.6,0.8,1.3,0.9,2.2C142.3,30.1,142,29.6,141.7,29z"/>
	<path class="st9" d="M99.6,28.7c0,0.3-0.1,0.6,0.3,0.7c-0.3,0.5-0.5,1.1-1.1,1.5c-0.4-0.7,0.4-1.1,0.5-1.6
		C99.3,29.1,99.5,28.9,99.6,28.7z"/>
	<path class="st7" d="M124.3,50.1c0.3-0.4,0.6-0.2,1-0.3C125,50.1,124.6,50.1,124.3,50.1z"/>
	<path class="st8" d="M141.5,28.7c0.1,0.1,0.1,0.2,0.2,0.3C141.7,28.9,141.6,28.8,141.5,28.7z"/>
	<path class="st10" d="M120.9,48.4c-6.9,0-12.5-5.5-12.5-12.3c0-7.1,5.6-12.7,12.5-12.7c6.9,0,12.4,5.6,12.4,12.5
		C133.4,42.9,127.9,48.4,120.9,48.4z M112.1,40.8c0.8-0.3,1.6-0.6,2.5-0.9c0.4-0.2,0.8-0.2,1.1,0.2c2.2,2.4,6.8,2.2,9.4-0.7
		c1.9-2.1,3.3-4.5,4.5-7c0.3-0.5,0.2-0.8-0.3-1c-2.8-0.8-5.5-1.6-8.4-1.2c-3,0.3-5.1,1.8-6.2,4.6c-0.4,0.9-0.6,1.9-0.1,3
		c1.6-1,3.3-1.7,5.2-2.2c-0.2,0.6-0.7,0.6-1,0.8c-2.4,1.2-4.7,2.5-6.7,4.3c0,0-0.1,0.1-0.1,0.1C112,40.9,112.1,40.9,112.1,40.8z"/>
	<path class="st11" d="M112,40.7c2-1.8,4.3-3.1,6.7-4.3c0.3-0.2,0.8-0.2,1-0.8c-1.9,0.4-3.5,1.2-5.2,2.2c-0.5-1.1-0.2-2.1,0.1-3
		c1.1-2.8,3.2-4.3,6.2-4.6c2.9-0.3,5.7,0.4,8.4,1.2c0.6,0.2,0.6,0.5,0.3,1c-1.3,2.5-2.6,4.9-4.5,7c-2.6,2.9-7.3,3.1-9.4,0.7
		c-0.3-0.4-0.7-0.3-1.1-0.2c-0.8,0.3-1.6,0.6-2.5,0.9C112.1,40.7,112,40.7,112,40.7z"/>
	<path class="st11" d="M112.1,40.8c-0.1,0.1-0.1,0.2-0.3,0.1c0,0,0.1-0.1,0.1-0.1C112,40.7,112.1,40.7,112.1,40.8z"/>
</g>
</svg>
